<svg width="71" height="63" viewBox="0 0 71 63" fill="none" xmlns="http://www.w3.org/2000/svg">
<path d="M35.5182 62.0012L8.9167 62.0694C2.46117 62.0694 -1.58836 55.3035 1.62669 49.8627L14.8724 27.4431L28.1181 5.02362C31.3331 -0.417224 39.4025 -0.438525 42.643 4.98528L55.9988 27.3409L69.3546 49.6965C72.5951 55.1075 68.5752 61.9246 62.1197 61.9246L35.5182 62.0012Z" fill="#EF4444" fill-opacity="0.8"/>
<path d="M35.5483 5.07747H35.5269C34.4613 5.07209 33.4129 5.34591 32.486 5.87169C31.5591 6.39747 30.7862 7.15687 30.244 8.07427L5.32354 50.2691C4.78604 51.1628 4.50492 52.1872 4.51096 53.23C4.517 54.2729 4.80997 55.2939 5.35778 56.1813C5.90986 57.0876 6.68863 57.8343 7.6173 58.3478C8.54597 58.8613 9.59246 59.1239 10.6536 59.1096L60.9783 58.8357C62.0448 58.8427 63.0944 58.5695 64.0222 58.0436C64.9501 57.5177 65.7236 56.7575 66.2654 55.8389C66.802 54.9449 67.0826 53.9206 67.0766 52.8779C67.0705 51.8353 66.7781 50.8143 66.2312 49.9266L40.8569 8.00577C40.3044 7.09702 39.5237 6.34863 38.5925 5.83493C37.6612 5.32123 36.6117 5.0601 35.5483 5.07747Z" fill="#EF4444"/>
<path d="M38.2411 38.5907L39.2386 20.1904L31.5925 20.2546L32.9497 38.6335L38.2411 38.5907Z" fill="white"/>
<path d="M35.527 41.8395H35.4885C34.3147 41.83 33.181 42.266 32.3162 43.0596C31.9154 43.4381 31.5978 43.8958 31.3833 44.4036C31.1688 44.9114 31.0623 45.4582 31.0704 46.0093C31.0703 46.5629 31.1843 47.1104 31.4053 47.618C31.6263 48.1255 31.9495 48.582 32.3547 48.959C33.2186 49.7424 34.3481 50.1679 35.5142 50.1492H35.5527C36.7148 50.1543 37.833 49.7058 38.6694 48.8991C39.0591 48.5098 39.3667 48.0462 39.5741 47.5359C39.7815 47.0255 39.8844 46.4788 39.8767 45.928C39.8681 43.5862 37.9972 41.8309 35.527 41.8395Z" fill="white"/>
</svg>
