<svg class="svg-icon" style="width: 1.00390625em;height: 1em;vertical-align: middle;fill: currentColor;overflow: hidden;" viewBox="0 0 1028 1024" version="1.1" xmlns="http://www.w3.org/2000/svg"><path d="M511.786756 275.938359A106.622241 106.622241 0 1 1 618.408996 170.595585 106.622241 106.622241 0 0 1 511.786756 275.938359z m0-170.595585A63.973344 63.973344 0 1 0 575.7601 170.595585 63.973344 63.973344 0 0 0 511.786756 105.342774zM511.786756 618.408996a106.622241 106.622241 0 1 1 106.62224-106.62224 106.622241 106.622241 0 0 1-106.62224 106.62224z m0-170.595585a63.973344 63.973344 0 1 0 63.973344 63.973345 63.973344 63.973344 0 0 0-63.973344-63.973345zM511.786756 960.879633A106.622241 106.622241 0 1 1 618.408996 852.977926a106.622241 106.622241 0 0 1-106.62224 107.901707z m0-170.595585A63.973344 63.973344 0 1 0 575.7601 852.977926a63.973344 63.973344 0 0 0-63.973344-62.693878z"  /></svg>